<?xml version="1.0" encoding="utf-8"?>
<!DOCTYPE svg PUBLIC "-//W3C//DTD SVG 1.1//EN" "http://www.w3.org/Graphics/SVG/1.1/DTD/svg11.dtd">
<svg version="1.1" xmlns="http://www.w3.org/2000/svg" xmlns:xlink="http://www.w3.org/1999/xlink" x="0px" y="0px" width="1024px" height="1024px" viewBox="0 0 1024 1024" enable-background="new 0 0 1024 1024" xml:space="preserve">
<metadata> Free Icon Download -- www.onlinewebfonts.com </metadata>

  <path d="M511.951393 1021.074368c-281.151331 0-508.990456-227.933269-508.990456-509.10916 0-281.201473 227.839125-509.038552 508.990456-509.038552 281.153378 0 509.086647 227.837078 509.086647 509.038552C1021.03804 793.140075 793.104771 1021.074368 511.951393 1021.074368L511.951393 1021.074368zM443.391924 477.636355c-18.939351-18.891256-49.620118-18.891256-68.465325 0l-137.215128 137.215128c-18.939351 18.893302-18.939351 49.574069 0 68.51342L340.551698 786.229688c18.939351 18.939351 49.622164 18.939351 68.561515 0l137.118937-137.14452c18.939351-18.891256 18.939351-49.525973 0-68.511373L409.113213 717.668173c-18.939351 18.939351-49.622164 18.939351-68.561515 0l-34.278711-34.302247c-18.939351-18.939351-18.939351-49.620118 0-68.51342l137.215128-137.119961L443.391924 477.636355 443.391924 477.636355zM597.747431 460.498022c9.469676-9.423627 9.469676-24.762987 0-34.232662-9.565866-9.469676-24.905226-9.469676-34.374902 0L426.251545 563.384297c-9.469676 9.423627-9.469676 24.762987 0 34.328853 9.469676 9.469676 24.811082 9.469676 34.280758 0L597.747431 460.498022 597.747431 460.498022zM786.191314 340.516394 683.353135 237.676168c-18.939351-18.939351-49.622164-18.939351-68.465325 0L477.672682 374.891296c-18.939351 18.891256-18.939351 49.574069 0 68.51342l0.094144 0.046049L614.88781 306.283732c18.84316-18.939351 49.525973-18.939351 68.465325 0l34.374902 34.232662c18.84316 18.939351 18.84316 49.668213 0 68.607564L580.607052 546.243919c18.939351 18.893302 49.620118 18.893302 68.465325 0l137.118937-137.119961C805.226856 390.18563 805.226856 359.455745 786.191314 340.516394L786.191314 340.516394z" />


</svg>